<mxfile host="Electron" agent="Mozilla/5.0 (X11; Linux x86_64) AppleWebKit/537.36 (KHTML, like Gecko) draw.io/26.0.16 Chrome/132.0.6834.196 Electron/34.2.0 Safari/537.36" version="26.0.16">
  <diagram name="第 1 页" id="coCXjC8nC2xir3ebWp97">
    <mxGraphModel dx="1234" dy="1203" grid="1" gridSize="10" guides="1" tooltips="1" connect="1" arrows="1" fold="1" page="1" pageScale="1" pageWidth="827" pageHeight="1169" math="0" shadow="0">
      <root>
        <mxCell id="0" />
        <mxCell id="1" parent="0" />
        <mxCell id="tCBTZptdMYIyIDp6ObKQ-2" value="" style="rounded=0;whiteSpace=wrap;html=1;fillColor=#dae8fc;strokeColor=#6c8ebf;" parent="1" vertex="1">
          <mxGeometry x="40" y="60" width="1010" height="660" as="geometry" />
        </mxCell>
        <mxCell id="tCBTZptdMYIyIDp6ObKQ-17" value="" style="rounded=0;whiteSpace=wrap;html=1;fontStyle=1" parent="1" vertex="1">
          <mxGeometry x="490" y="170" width="110" height="70" as="geometry" />
        </mxCell>
        <mxCell id="tCBTZptdMYIyIDp6ObKQ-3" value="" style="rounded=0;whiteSpace=wrap;html=1;" parent="1" vertex="1">
          <mxGeometry x="416.25" y="230" width="257.5" height="220" as="geometry" />
        </mxCell>
        <mxCell id="tCBTZptdMYIyIDp6ObKQ-16" value="" style="rounded=0;whiteSpace=wrap;html=1;fontStyle=1" parent="1" vertex="1">
          <mxGeometry x="510" y="570" width="70" height="70" as="geometry" />
        </mxCell>
        <mxCell id="tCBTZptdMYIyIDp6ObKQ-19" value="" style="group" parent="1" vertex="1" connectable="0">
          <mxGeometry x="780" y="390" width="210" height="180" as="geometry" />
        </mxCell>
        <mxCell id="tCBTZptdMYIyIDp6ObKQ-4" value="" style="rounded=0;whiteSpace=wrap;html=1;" parent="tCBTZptdMYIyIDp6ObKQ-19" vertex="1">
          <mxGeometry y="40" width="70" height="70" as="geometry" />
        </mxCell>
        <mxCell id="tCBTZptdMYIyIDp6ObKQ-5" value="" style="rounded=0;whiteSpace=wrap;html=1;" parent="tCBTZptdMYIyIDp6ObKQ-19" vertex="1">
          <mxGeometry x="70" y="20" width="70" height="70" as="geometry" />
        </mxCell>
        <mxCell id="tCBTZptdMYIyIDp6ObKQ-6" value="" style="rounded=0;whiteSpace=wrap;html=1;fontStyle=1" parent="tCBTZptdMYIyIDp6ObKQ-19" vertex="1">
          <mxGeometry x="140" width="70" height="70" as="geometry" />
        </mxCell>
        <mxCell id="tCBTZptdMYIyIDp6ObKQ-7" value="" style="rounded=0;whiteSpace=wrap;html=1;" parent="tCBTZptdMYIyIDp6ObKQ-19" vertex="1">
          <mxGeometry y="110" width="70" height="70" as="geometry" />
        </mxCell>
        <mxCell id="tCBTZptdMYIyIDp6ObKQ-8" value="" style="rounded=0;whiteSpace=wrap;html=1;" parent="tCBTZptdMYIyIDp6ObKQ-19" vertex="1">
          <mxGeometry x="70" y="90" width="70" height="70" as="geometry" />
        </mxCell>
        <mxCell id="tCBTZptdMYIyIDp6ObKQ-9" value="" style="rounded=0;whiteSpace=wrap;html=1;fontStyle=1" parent="tCBTZptdMYIyIDp6ObKQ-19" vertex="1">
          <mxGeometry x="140" y="70" width="70" height="70" as="geometry" />
        </mxCell>
        <mxCell id="tCBTZptdMYIyIDp6ObKQ-41" value="unknown key 300" style="text;html=1;align=center;verticalAlign=middle;whiteSpace=wrap;rounded=0;" parent="tCBTZptdMYIyIDp6ObKQ-19" vertex="1">
          <mxGeometry x="5" y="60" width="60" height="30" as="geometry" />
        </mxCell>
        <mxCell id="tCBTZptdMYIyIDp6ObKQ-42" value="BTN_BASE6&lt;div&gt;299&lt;br&gt;&lt;div&gt;&lt;br&gt;&lt;/div&gt;&lt;/div&gt;" style="text;html=1;align=center;verticalAlign=middle;whiteSpace=wrap;rounded=0;" parent="tCBTZptdMYIyIDp6ObKQ-19" vertex="1">
          <mxGeometry x="75" y="46" width="60" height="30" as="geometry" />
        </mxCell>
        <mxCell id="tCBTZptdMYIyIDp6ObKQ-43" value="BTN_BASE5&lt;div&gt;298&lt;/div&gt;" style="text;html=1;align=center;verticalAlign=middle;whiteSpace=wrap;rounded=0;" parent="tCBTZptdMYIyIDp6ObKQ-19" vertex="1">
          <mxGeometry x="145" y="20" width="60" height="30" as="geometry" />
        </mxCell>
        <mxCell id="tCBTZptdMYIyIDp6ObKQ-44" value="unknown key 301" style="text;html=1;align=center;verticalAlign=middle;whiteSpace=wrap;rounded=0;" parent="tCBTZptdMYIyIDp6ObKQ-19" vertex="1">
          <mxGeometry x="5" y="130" width="60" height="30" as="geometry" />
        </mxCell>
        <mxCell id="tCBTZptdMYIyIDp6ObKQ-46" value="unknown key 302" style="text;html=1;align=center;verticalAlign=middle;whiteSpace=wrap;rounded=0;" parent="tCBTZptdMYIyIDp6ObKQ-19" vertex="1">
          <mxGeometry x="75" y="110" width="60" height="30" as="geometry" />
        </mxCell>
        <mxCell id="tCBTZptdMYIyIDp6ObKQ-47" value="BTN_DEAD&lt;div&gt;303&lt;/div&gt;" style="text;html=1;align=center;verticalAlign=middle;whiteSpace=wrap;rounded=0;" parent="tCBTZptdMYIyIDp6ObKQ-19" vertex="1">
          <mxGeometry x="145" y="90" width="60" height="30" as="geometry" />
        </mxCell>
        <mxCell id="tCBTZptdMYIyIDp6ObKQ-20" value="" style="group" parent="1" vertex="1" connectable="0">
          <mxGeometry x="110" y="390" width="210" height="180" as="geometry" />
        </mxCell>
        <mxCell id="tCBTZptdMYIyIDp6ObKQ-10" value="" style="rounded=0;whiteSpace=wrap;html=1;" parent="tCBTZptdMYIyIDp6ObKQ-20" vertex="1">
          <mxGeometry width="70" height="70" as="geometry" />
        </mxCell>
        <mxCell id="tCBTZptdMYIyIDp6ObKQ-11" value="" style="rounded=0;whiteSpace=wrap;html=1;" parent="tCBTZptdMYIyIDp6ObKQ-20" vertex="1">
          <mxGeometry x="70" y="20" width="70" height="70" as="geometry" />
        </mxCell>
        <mxCell id="tCBTZptdMYIyIDp6ObKQ-12" value="" style="rounded=0;whiteSpace=wrap;html=1;fontStyle=1" parent="tCBTZptdMYIyIDp6ObKQ-20" vertex="1">
          <mxGeometry x="140" y="40" width="70" height="70" as="geometry" />
        </mxCell>
        <mxCell id="tCBTZptdMYIyIDp6ObKQ-13" value="" style="rounded=0;whiteSpace=wrap;html=1;" parent="tCBTZptdMYIyIDp6ObKQ-20" vertex="1">
          <mxGeometry y="70" width="70" height="70" as="geometry" />
        </mxCell>
        <mxCell id="tCBTZptdMYIyIDp6ObKQ-14" value="" style="rounded=0;whiteSpace=wrap;html=1;" parent="tCBTZptdMYIyIDp6ObKQ-20" vertex="1">
          <mxGeometry x="70" y="90" width="70" height="70" as="geometry" />
        </mxCell>
        <mxCell id="tCBTZptdMYIyIDp6ObKQ-15" value="" style="rounded=0;whiteSpace=wrap;html=1;fontStyle=1" parent="tCBTZptdMYIyIDp6ObKQ-20" vertex="1">
          <mxGeometry x="140" y="110" width="70" height="70" as="geometry" />
        </mxCell>
        <mxCell id="tCBTZptdMYIyIDp6ObKQ-48" value="BTN_TOP2&lt;div&gt;292&lt;/div&gt;" style="text;html=1;align=center;verticalAlign=middle;whiteSpace=wrap;rounded=0;" parent="tCBTZptdMYIyIDp6ObKQ-20" vertex="1">
          <mxGeometry x="5" y="20" width="60" height="30" as="geometry" />
        </mxCell>
        <mxCell id="tCBTZptdMYIyIDp6ObKQ-49" value="BTN_PINKIE&lt;div&gt;293&lt;/div&gt;" style="text;html=1;align=center;verticalAlign=middle;whiteSpace=wrap;rounded=0;" parent="tCBTZptdMYIyIDp6ObKQ-20" vertex="1">
          <mxGeometry x="75" y="40" width="60" height="30" as="geometry" />
        </mxCell>
        <mxCell id="tCBTZptdMYIyIDp6ObKQ-50" value="BTN_BASE&lt;div&gt;294&lt;/div&gt;" style="text;html=1;align=center;verticalAlign=middle;whiteSpace=wrap;rounded=0;" parent="tCBTZptdMYIyIDp6ObKQ-20" vertex="1">
          <mxGeometry x="145" y="60" width="60" height="30" as="geometry" />
        </mxCell>
        <mxCell id="tCBTZptdMYIyIDp6ObKQ-51" value="BTN_BASE4&lt;div&gt;297&lt;/div&gt;" style="text;html=1;align=center;verticalAlign=middle;whiteSpace=wrap;rounded=0;" parent="tCBTZptdMYIyIDp6ObKQ-20" vertex="1">
          <mxGeometry x="5" y="90" width="60" height="30" as="geometry" />
        </mxCell>
        <mxCell id="tCBTZptdMYIyIDp6ObKQ-52" value="BTN_BASE3&lt;div&gt;296&lt;/div&gt;" style="text;html=1;align=center;verticalAlign=middle;whiteSpace=wrap;rounded=0;" parent="tCBTZptdMYIyIDp6ObKQ-20" vertex="1">
          <mxGeometry x="75" y="110" width="60" height="30" as="geometry" />
        </mxCell>
        <mxCell id="tCBTZptdMYIyIDp6ObKQ-53" value="BTN_BASE2&lt;div&gt;295&lt;/div&gt;" style="text;html=1;align=center;verticalAlign=middle;whiteSpace=wrap;rounded=0;" parent="tCBTZptdMYIyIDp6ObKQ-20" vertex="1">
          <mxGeometry x="145" y="130" width="60" height="30" as="geometry" />
        </mxCell>
        <mxCell id="tCBTZptdMYIyIDp6ObKQ-25" value="BTN_TRIGGER&lt;div&gt;288&lt;/div&gt;" style="text;html=1;align=center;verticalAlign=middle;whiteSpace=wrap;rounded=0;" parent="1" vertex="1">
          <mxGeometry x="515" y="184" width="60" height="30" as="geometry" />
        </mxCell>
        <mxCell id="tCBTZptdMYIyIDp6ObKQ-28" value="" style="rounded=0;whiteSpace=wrap;html=1;fontStyle=1" parent="1" vertex="1">
          <mxGeometry x="500" y="220" width="90" height="50" as="geometry" />
        </mxCell>
        <mxCell id="tCBTZptdMYIyIDp6ObKQ-29" value="BTN_THUMB&lt;div&gt;289&lt;/div&gt;" style="text;html=1;align=center;verticalAlign=middle;whiteSpace=wrap;rounded=0;" parent="1" vertex="1">
          <mxGeometry x="515" y="230" width="60" height="30" as="geometry" />
        </mxCell>
        <mxCell id="tCBTZptdMYIyIDp6ObKQ-30" value="" style="shape=flexArrow;endArrow=classic;startArrow=classic;html=1;rounded=0;fillColor=#f5f5f5;strokeColor=#666666;" parent="1" edge="1">
          <mxGeometry width="100" height="100" relative="1" as="geometry">
            <mxPoint x="500" y="330" as="sourcePoint" />
            <mxPoint x="590" y="330" as="targetPoint" />
          </mxGeometry>
        </mxCell>
        <mxCell id="tCBTZptdMYIyIDp6ObKQ-31" value="" style="shape=flexArrow;endArrow=classic;startArrow=classic;html=1;rounded=0;fillColor=#f5f5f5;strokeColor=#666666;" parent="1" edge="1">
          <mxGeometry width="100" height="100" relative="1" as="geometry">
            <mxPoint x="544.58" y="290" as="sourcePoint" />
            <mxPoint x="544.58" y="370" as="targetPoint" />
          </mxGeometry>
        </mxCell>
        <mxCell id="tCBTZptdMYIyIDp6ObKQ-32" value="ABS_HAT0X+&lt;div&gt;16&lt;/div&gt;" style="text;html=1;align=center;verticalAlign=middle;whiteSpace=wrap;rounded=0;" parent="1" vertex="1">
          <mxGeometry x="575" y="320" width="60" height="30" as="geometry" />
        </mxCell>
        <mxCell id="tCBTZptdMYIyIDp6ObKQ-33" value="ABS_HAT0Y+&lt;div&gt;17&lt;/div&gt;" style="text;html=1;align=center;verticalAlign=middle;whiteSpace=wrap;rounded=0;" parent="1" vertex="1">
          <mxGeometry x="515" y="360" width="60" height="30" as="geometry" />
        </mxCell>
        <mxCell id="tCBTZptdMYIyIDp6ObKQ-34" value="" style="group" parent="1" vertex="1" connectable="0">
          <mxGeometry x="430" y="380" width="60" height="50" as="geometry" />
        </mxCell>
        <mxCell id="tCBTZptdMYIyIDp6ObKQ-22" value="" style="ellipse;whiteSpace=wrap;html=1;aspect=fixed;" parent="tCBTZptdMYIyIDp6ObKQ-34" vertex="1">
          <mxGeometry x="5" width="50" height="50" as="geometry" />
        </mxCell>
        <mxCell id="tCBTZptdMYIyIDp6ObKQ-26" value="BTN_THUMB2&lt;div&gt;290&lt;/div&gt;" style="text;html=1;align=center;verticalAlign=middle;whiteSpace=wrap;rounded=0;" parent="tCBTZptdMYIyIDp6ObKQ-34" vertex="1">
          <mxGeometry y="10" width="60" height="30" as="geometry" />
        </mxCell>
        <mxCell id="tCBTZptdMYIyIDp6ObKQ-37" value="" style="group" parent="1" vertex="1" connectable="0">
          <mxGeometry x="595" y="380" width="60" height="50" as="geometry" />
        </mxCell>
        <mxCell id="tCBTZptdMYIyIDp6ObKQ-23" value="" style="ellipse;whiteSpace=wrap;html=1;aspect=fixed;fillColor=#f8cecc;strokeColor=#b85450;" parent="tCBTZptdMYIyIDp6ObKQ-37" vertex="1">
          <mxGeometry x="5" width="50" height="50" as="geometry" />
        </mxCell>
        <mxCell id="tCBTZptdMYIyIDp6ObKQ-27" value="BTN_TOP&lt;div&gt;291&lt;/div&gt;" style="text;html=1;align=center;verticalAlign=middle;whiteSpace=wrap;rounded=0;" parent="tCBTZptdMYIyIDp6ObKQ-37" vertex="1">
          <mxGeometry y="10" width="60" height="30" as="geometry" />
        </mxCell>
        <mxCell id="tCBTZptdMYIyIDp6ObKQ-39" value="ABS_THROTTLE+&lt;div&gt;6&lt;/div&gt;" style="text;html=1;align=center;verticalAlign=middle;whiteSpace=wrap;rounded=0;" parent="1" vertex="1">
          <mxGeometry x="515" y="583" width="60" height="30" as="geometry" />
        </mxCell>
        <mxCell id="tCBTZptdMYIyIDp6ObKQ-40" value="ABS_THROTTLE-" style="text;html=1;align=center;verticalAlign=middle;whiteSpace=wrap;rounded=0;" parent="1" vertex="1">
          <mxGeometry x="515" y="610" width="60" height="30" as="geometry" />
        </mxCell>
        <mxCell id="tCBTZptdMYIyIDp6ObKQ-58" value="" style="endArrow=none;html=1;rounded=0;curved=1;startFill=1;startArrow=classic;" parent="1" edge="1">
          <mxGeometry width="50" height="50" relative="1" as="geometry">
            <mxPoint x="746.25" y="250" as="sourcePoint" />
            <mxPoint x="310" y="230" as="targetPoint" />
            <Array as="points">
              <mxPoint x="600" y="-40" />
            </Array>
          </mxGeometry>
        </mxCell>
        <mxCell id="tCBTZptdMYIyIDp6ObKQ-59" value="ABS_RZ+&lt;div&gt;5&lt;/div&gt;" style="text;html=1;align=center;verticalAlign=middle;whiteSpace=wrap;rounded=0;" parent="1" vertex="1">
          <mxGeometry x="720" y="250" width="60" height="30" as="geometry" />
        </mxCell>
        <mxCell id="tCBTZptdMYIyIDp6ObKQ-60" value="" style="shape=flexArrow;endArrow=classic;html=1;rounded=0;fillColor=#f5f5f5;strokeColor=#666666;" parent="1" edge="1">
          <mxGeometry width="50" height="50" relative="1" as="geometry">
            <mxPoint x="700" y="280" as="sourcePoint" />
            <mxPoint x="700" y="400" as="targetPoint" />
          </mxGeometry>
        </mxCell>
        <mxCell id="tCBTZptdMYIyIDp6ObKQ-61" value="ABS_Y+&lt;div&gt;1&lt;/div&gt;" style="text;html=1;align=center;verticalAlign=middle;whiteSpace=wrap;rounded=0;" parent="1" vertex="1">
          <mxGeometry x="673.75" y="400" width="60" height="30" as="geometry" />
        </mxCell>
        <mxCell id="tCBTZptdMYIyIDp6ObKQ-62" value="" style="shape=flexArrow;endArrow=classic;html=1;rounded=0;fillColor=#f5f5f5;strokeColor=#666666;" parent="1" edge="1">
          <mxGeometry width="50" height="50" relative="1" as="geometry">
            <mxPoint x="465" y="470" as="sourcePoint" />
            <mxPoint x="635" y="470" as="targetPoint" />
          </mxGeometry>
        </mxCell>
        <mxCell id="tCBTZptdMYIyIDp6ObKQ-63" value="ABS_X+&lt;div&gt;0&lt;/div&gt;" style="text;html=1;align=center;verticalAlign=middle;whiteSpace=wrap;rounded=0;" parent="1" vertex="1">
          <mxGeometry x="635" y="460" width="60" height="30" as="geometry" />
        </mxCell>
      </root>
    </mxGraphModel>
  </diagram>
</mxfile>
